<svg viewBox="0 0 30 30" fill="none" xmlns="http://www.w3.org/2000/svg">
  <path fill-rule="evenodd" clip-rule="evenodd" d="M22.996 22.288L21.85 9.393a.551.551 0 00-.547-.503h-2.355A3.953 3.953 0 0015 5a3.953 3.953 0 00-3.949 3.89H8.696a.548.548 0 00-.547.503L7.004 22.288a.198.198 0 01-.002.025L7 22.337C7 23.806 8.345 25 10 25h10c1.655 0 3-1.194 3-2.663 0-.016 0-.032-.004-.049zM15 6.104a2.849 2.849 0 012.845 2.786h-5.69A2.849 2.849 0 0115 6.104zm-5 17.792h10c1.034 0 1.88-.687 1.896-1.534l-1.1-12.364H18.95v1.677a.55.55 0 01-.552.552.55.55 0 01-.552-.552V9.998h-5.694v1.677a.55.55 0 01-.552.552.55.55 0 01-.552-.552V9.998H9.199L8.104 22.362c.016.847.858 1.534 1.897 1.534z" fill="#000"/>
</svg>
