<svg width="138" height="15" fill="none" xmlns="http://www.w3.org/2000/svg"><path d="M0 14.814V.124h5.773c1.24 0 2.333.193 3.278.58.944.386 1.734.91 2.368 1.572a6.561 6.561 0 011.438 2.338c.325.883.487 1.827.487 2.834 0 1.118-.184 2.131-.55 3.042a6.554 6.554 0 01-1.523 2.317c-.662.634-1.459 1.13-2.39 1.49-.93.344-1.966.517-3.108.517H0zm9.157-7.366a4.92 4.92 0 00-.233-1.551 3.353 3.353 0 00-.677-1.2A2.801 2.801 0 007.19 3.93a3.372 3.372 0 00-1.417-.29h-1.65v7.656h1.65c.536 0 1.015-.097 1.438-.29a2.9 2.9 0 001.057-.807c.296-.345.515-.752.656-1.22a4.85 4.85 0 00.233-1.532zM19.29.124h3.764l5.202 14.69H24.07l-.91-2.876h-3.996l-.888 2.876h-4.208L19.29.124zm3.214 9.124l-1.332-4.551-1.396 4.551h2.728zM30.385 14.814V.124h4.123v14.69h-4.123zM37.978 14.814V.124H42.1v11.173h6.81v3.517H37.977zM52.25.124l2.686 6.352L57.685.124h4.483l-5.181 9.828v4.862h-4.102V9.91L47.788.124h4.462zM69.016 14.814V.124h5.773c1.241 0 2.334.193 3.278.58.945.386 1.734.91 2.369 1.572a6.56 6.56 0 011.438 2.338c.324.883.486 1.827.486 2.834 0 1.118-.183 2.131-.55 3.042a6.554 6.554 0 01-1.522 2.317c-.663.634-1.46 1.13-2.39 1.49-.93.344-1.967.517-3.108.517h-5.774zm9.157-7.366a4.92 4.92 0 00-.233-1.551 3.355 3.355 0 00-.676-1.2 2.801 2.801 0 00-1.058-.766 3.372 3.372 0 00-1.416-.29h-1.65v7.656h1.65c.535 0 1.015-.097 1.438-.29a2.899 2.899 0 001.057-.807c.296-.345.514-.752.655-1.22a4.85 4.85 0 00.233-1.532zM95.735 11.297v3.517h-10.7V.124h10.51v3.517h-6.386v2.07h5.455v3.268h-5.456v2.318h6.577zM102.425.124h3.764l5.202 14.69h-4.187l-.909-2.876h-3.997l-.888 2.876h-4.208l5.223-14.69zm3.214 9.124l-1.332-4.551-1.396 4.551h2.728zM113.52 14.814V.124h4.123v11.173h6.81v3.517H113.52zM135.864 4.924c-.423-.248-.86-.469-1.311-.662a10.628 10.628 0 00-1.29-.455 4.412 4.412 0 00-1.374-.228c-.367 0-.663.055-.889.166-.211.11-.317.296-.317.558 0 .194.064.352.191.476.126.124.31.242.549.352.24.097.529.193.867.29.353.096.748.213 1.185.351.69.207 1.311.435 1.86.683a5.579 5.579 0 011.438.89 3.3 3.3 0 01.91 1.22c.211.483.317 1.07.317 1.76 0 .882-.169 1.627-.508 2.234a3.913 3.913 0 01-1.311 1.427 5.632 5.632 0 01-1.839.786 9.357 9.357 0 01-2.052.228c-.549 0-1.113-.041-1.691-.124-.578-.083-1.156-.2-1.734-.352a16.426 16.426 0 01-1.65-.538 10.879 10.879 0 01-1.459-.703l1.776-3.538a12.57 12.57 0 001.544.807c.451.207.959.393 1.523.558a6.342 6.342 0 001.755.249c.451 0 .761-.056.93-.166.184-.124.275-.283.275-.476a.623.623 0 00-.275-.517c-.169-.152-.409-.283-.719-.393-.31-.11-.669-.22-1.078-.331-.395-.11-.818-.242-1.269-.393a11.948 11.948 0 01-1.713-.704 4.99 4.99 0 01-1.184-.869 3.332 3.332 0 01-.698-1.117 4.42 4.42 0 01-.211-1.427c0-.814.148-1.532.444-2.152.31-.62.726-1.138 1.247-1.552a5.44 5.44 0 011.777-.931A6.837 6.837 0 01132.015 0c.55 0 1.086.055 1.608.166.521.096 1.022.227 1.501.393.493.151.952.324 1.375.517.423.18.803.352 1.142.517l-1.777 3.331z" fill="#000"/></svg>